<svg xmlns="http://www.w3.org/2000/svg" viewBox="0 0 264 48" style="enable-background:new 0 0 264 48" xml:space="preserve"><path d="M18.5 0C8.299 0 0 8.299 0 18.5v11C0 39.701 8.299 48 18.5 48S37 39.701 37 29.5v-11C37 8.299 28.701 0 18.5 0zm0 3c7.27 0 13.369 5.037 15.035 11.8H3.465C5.131 8.037 11.23 3 18.5 3zM3 29.5v-11c0-.236.025-.466.035-.7H17v3.1h-6.5c-2.481 0-4.5 1.896-4.5 4.228v13.5A15.404 15.404 0 0 1 3 29.5zm6 12.221V25.127c0-.677.673-1.228 1.5-1.228H17v12.5h1.5v1.5l1.5-1.5V23.9h6.5c.827 0 1.5.551 1.5 1.228v16.594C25.373 43.768 22.081 45 18.5 45s-6.873-1.232-9.5-3.279zM34 29.5c0 3.414-1.123 6.563-3 9.127v-13.5c0-2.331-2.019-4.228-4.5-4.228H20v-3.1h13.965c.01.235.035.465.035.701v11zm-9.5 4L26 35v4.8c0 .502-.251.97-.668 1.249-.108.071-2.678 1.751-6.832 1.751s-6.724-1.68-6.832-1.751A1.503 1.503 0 0 1 11 39.8V35h3v3.894c.83.37 2.398.906 4.5.906 2.1 0 3.667-.536 4.5-.907V35h1.5v-1.5z" style="fill:#f79c0f"/><path d="M47.158 12.472h23.278v2.876H60.223v1.771h9.543v14.634c0 2.29-1.176 3.501-3.401 3.501h-3.277v-2.925h3.003c.699 0 .774-.611.774-.874V19.92h-6.642v9.028h2.517v-7.331h2.602V31.7H52.228V21.642h2.602v7.306h2.542V19.92H50.68v15.333h-2.826V17.119h9.518v-1.771H47.158v-2.876zm48.331 7.199h-3.804c.695 1.282 1.917 2.153 3.439 2.425l.366.065v2.956l-.536-.113a6.5 6.5 0 0 0-.135-.029v9.979H72.931v-9.992l-.181.041-.54.119v-2.93l.357-.072c1.878-.376 2.989-1.141 3.524-2.451H72.21V17.02h4.274v-1.051H72.71v-2.627h3.774V12h3v1.342h3.799v2.627h-3.799v1.051h8.705v-1.051H84.39v-2.627h3.799V12h3.024v1.342h3.799v2.627h-3.799v1.051h4.274v2.651zm-15.509 0c.697 1.284 1.928 2.154 3.463 2.425 0 0 .23.059.412.059s.393-.033.393-.033c1.893-.379 3.012-1.144 3.548-2.451H79.98zm-5.071 4.655h6.347a8.247 8.247 0 0 1-3.074-2.508c-.773 1.07-1.868 1.909-3.273 2.508zm16.809 6.603H75.956v1.448h15.762v-1.448zm0-4.051H75.956v1.473h15.762v-1.473zm-1.856-5.042c-.774 1.062-1.869 1.894-3.27 2.49h6.342a8.31 8.31 0 0 1-3.072-2.49zm29.984-9.389v2.975h-2.087v16.48c0 1.848-1.526 3.352-3.401 3.352h-3.426v-2.95h2.929c.431 0 .824-.404.824-.849V15.422h-6.195v17.794H97.264V12.447h22.582zm-18.333 11.698h-1.597v6.37h1.597v-6.37zm0-9.021h-1.597v6.319h1.597v-6.319zm4.274 9.021h-1.573v6.37h1.573v-6.37zm0-9.021h-1.573v6.319h1.573v-6.319zm27.183-2.677h-11.349v3.294h11.43c3.516 0 3.922 1.702 3.922 2.982v.484c0 1.774-.69 2.956-4.057 2.956h-8.079c-2.225 0-3.216.975-3.216 3.163v9.926h18.592V31.96h-15.218v-5.909c0-.6.052-.648.702-.648h7.327c5.015 0 7.35-1.961 7.35-6.17v-.591c0-4.11-2.491-6.195-7.404-6.195zm9.179 3.497h10.711v14.963c0 .818-.538 1.346-1.37 1.346h-4.47v3h4.966c2.368 0 4.022-1.634 4.022-3.973V15.944h9.419V12.92h-23.278v3.024zm25.053-3.497h20.694v22.508h-20.694V12.447zm3.05 15.947v3.71h14.594v-3.71h-14.594zm0-6.56v3.735h14.594v-3.735h-14.594zm0-6.56v3.684h14.594v-3.684h-14.594zm43.39-.789-3.539 4.432a14.2 14.2 0 0 0 2.502.567l.385.051v3.055l-.521-.092a21.748 21.748 0 0 1-3.107-.78v.861h-2.908v3.138h6.213v2.851h-6.213v2.886c0 .314.237.55.55.55h3.181c.799 0 1.462-.23 2.085-.724l.719-.569v3.424l-.208.13c-.728.458-1.585.689-2.548.689h-3.703c-1.766 0-3.203-1.392-3.203-3.103v-3.284h-4.422c-.738 4.028-3.821 6.397-8.727 6.684l-.47.028v-2.921l.411-.03c3.333-.244 5.095-1.411 5.636-3.761h-5.749v-2.851h5.94v-3.138h-2.61V21.55c-.99.339-2.016.586-3.119.75l-.509.075V19.38l.39-.048a14.008 14.008 0 0 0 2.628-.585l-3.059-3.617h1.209v-2.684h11.68l.129.217c.567.952 1.086 1.701 1.608 2.317l2.043-2.633h3.394l-3.533 4.483c.435.355.9.676 1.389.958l2.657-3.304h3.399zm-14.569 8.094v3.138h4.256v-3.138h-4.256zm-1.913-2.876h8.148c-1.538-1.048-2.866-2.391-3.962-4.011-1.204 1.626-2.606 2.969-4.186 4.011zm.95-4.554h-5.028l2.14 2.468a10.98 10.98 0 0 0 2.888-2.468zm19.071-2.702h21.514v7.026h-3.678v1.746h3.007v2.702h-3.007v1.846h3.678v2.677h-.282l-2.621 3.469c.726.283 1.564.512 2.541.695l.362.068v2.684l-.52-.09c-2.719-.471-4.913-1.398-6.613-2.805v1.548l-.308.099c-3.142 1.013-8.378 1.164-11.22 1.164h-.444v-2.651h.444c.9 0 1.906 0 2.961-.034v-4.148h-3.305v-.241c-.585 2.758-1.701 4.903-3.499 6.925l-.774.873v-4.85l.07-.11c1.424-2.218 1.694-4.728 1.694-8.582V12.447zm14.787 8.772v-1.746h-5.4v1.746h5.4zm3.418 7.225h-3.882a7.472 7.472 0 0 0 2.103 2.33l1.779-2.33zm-8.818-4.523v1.846h5.4v-1.846h-5.4zm4.096 7.709c-.863-.903-1.569-1.964-2.121-3.185h-2.571v3.972c1.887-.159 3.493-.429 4.692-.787zm-10.458-16.531v1.746h15.488v-1.746h-15.488zm-.148 10.668h3.485v-1.846h-2.663v-2.702h2.663v-1.746h-3.337v2.936c0 1.212-.047 2.325-.148 3.358zM264 35.253h-3.391l-.763-1.666c-3.417 1.296-7.386 1.392-13.39 1.392h-5.986v-3h.444c.407 0 .8.007 1.188.013.275.004.546.009.817.011l1.746-3.733h-4.195v-2.851h23.278v2.851h-2.989L264 35.253zm-6.628-6.983h-9.169l-1.766 3.734c5.766-.005 9.132-.086 12.18-1.039l-1.245-2.695zm-16.386-7.238-.516.085v-3.062l.372-.061c4.411-.718 7.671-2.714 9.429-5.772l.128-.222h3.449l.127.227c1.746 3.121 5.082 5.169 9.39 5.766l.383.053v3.061l-.507-.074a21.707 21.707 0 0 1-1.605-.293v2.112h-19.004v-2.149c-.534.127-1.083.237-1.646.329zm18.061-1.055c-2.897-1.079-5.284-2.796-6.951-5.03-1.684 2.237-4.073 3.938-7.038 5.03h13.989z"/></svg>