<svg data-name="グループ 9205" xmlns="http://www.w3.org/2000/svg" viewBox="0 0 264 48"><path data-name="パス 208" d="M18.5 0A18.521 18.521 0 0 0 0 18.5v11a18.5 18.5 0 0 0 37 0v-11A18.521 18.521 0 0 0 18.5 0m0 3a15.514 15.514 0 0 1 15.035 11.8H3.465A15.514 15.514 0 0 1 18.5 3M3 29.5v-11c0-.236.025-.466.035-.7H17v3.1h-6.5A4.375 4.375 0 0 0 6 25.127v13.5A15.4 15.4 0 0 1 3 29.5m6 12.221V25.127a1.386 1.386 0 0 1 1.5-1.227H17v12.5h1.5v1.5l1.5-1.5V23.9h6.5a1.386 1.386 0 0 1 1.5 1.227v16.594a15.4 15.4 0 0 1-19 0M34 29.5a15.4 15.4 0 0 1-3 9.127v-13.5a4.375 4.375 0 0 0-4.5-4.227H20v-3.1h13.965c.01.234.035.464.035.7Zm-9.5 4L26 35v4.8a1.5 1.5 0 0 1-.668 1.248A13.057 13.057 0 0 1 18.5 42.8a13.057 13.057 0 0 1-6.832-1.752A1.5 1.5 0 0 1 11 39.8V35h3v3.894a11.163 11.163 0 0 0 4.5.906 11.146 11.146 0 0 0 4.5-.907V35h1.5Z" fill="#fff"/><path data-name="パス 209" d="M47.158 12.472h23.278v2.876H60.223v1.771h9.542v14.633c0 2.291-1.176 3.5-3.4 3.5h-3.277v-2.924h3a.769.769 0 0 0 .774-.874V19.92h-6.639v9.028h2.517v-7.331h2.6V31.7H52.228V21.642h2.6v7.306h2.542V19.92h-6.69v15.333h-2.826V17.119h9.518v-1.771H47.158Zm48.331 7.2h-3.805a4.778 4.778 0 0 0 3.439 2.428l.366.066v2.956L94.953 25l-.135-.03v9.98H72.932v-9.987l-.181.037-.54.119v-2.925l.357-.072c1.878-.376 2.989-1.141 3.524-2.451h-3.881V17.02h4.275v-1.052h-3.774v-2.627h3.774V12h3v1.341h3.8v2.627h-3.8v1.052h8.704v-1.052h-3.8v-2.627h3.8V12h3.025v1.341h3.8v2.627h-3.8v1.052h4.274Zm-15.509 0a4.791 4.791 0 0 0 3.463 2.428 2.006 2.006 0 0 0 .411.059 3.028 3.028 0 0 0 .394-.033c1.893-.379 3.012-1.144 3.548-2.451Zm-5.071 4.654h6.348a8.247 8.247 0 0 1-3.074-2.508 7.6 7.6 0 0 1-3.274 2.508m16.81 6.6H75.957v1.448h15.762Zm0-4.051H75.957v1.473h15.762Zm-1.857-5.043a7.625 7.625 0 0 1-3.27 2.49h6.342a8.308 8.308 0 0 1-3.072-2.49m29.984-9.388v2.974h-2.087V31.9a3.38 3.38 0 0 1-3.4 3.352h-3.426V32.3h2.928a.87.87 0 0 0 .825-.849v-16.03h-6.2v17.794H97.264V12.447Zm-18.333 11.7h-1.6v6.37h1.6Zm0-9.021h-1.6v6.319h1.6Zm4.275 9.021h-1.573v6.37h1.573Zm0-9.021h-1.573v6.319h1.573Zm27.182-2.676h-11.349v3.294h11.43c3.515 0 3.922 1.7 3.922 2.982v.484c0 1.775-.69 2.957-4.057 2.957h-8.078c-2.225 0-3.217.975-3.217 3.163v9.926h18.592V31.96H125v-5.909c0-.6.052-.648.7-.648h7.327c5.014 0 7.35-1.96 7.35-6.169v-.591c0-4.111-2.491-6.2-7.4-6.2m9.179 3.5h10.704v14.964a1.273 1.273 0 0 1-1.37 1.346h-4.47v3h4.966a3.825 3.825 0 0 0 4.023-3.973V15.944h9.418v-3.025h-23.278Zm25.054-3.5h20.69v22.512h-20.7Zm3.05 19.657h14.594v-3.71h-14.601Zm0-6.536h14.594v-3.731h-14.601Zm0-6.61h14.594v-3.68h-14.601Zm43.389-4.473-3.549 4.436a14.246 14.246 0 0 0 2.5.566l.385.052v3.054l-.521-.092a21.916 21.916 0 0 1-3.107-.779v.861h-2.908v3.138h6.213v2.851h-6.213v2.886a.539.539 0 0 0 .551.551h3.181a3.2 3.2 0 0 0 2.085-.725l.719-.569v3.424l-.207.13a4.706 4.706 0 0 1-2.548.69h-3.7a3.157 3.157 0 0 1-3.2-3.1v-3.287h-4.422c-.737 4.028-3.821 6.4-8.726 6.684l-.47.028v-2.921l.411-.03c3.333-.244 5.1-1.41 5.636-3.761h-5.749v-2.851h5.94v-3.138h-2.61v-1.028a17.418 17.418 0 0 1-3.119.75l-.509.076v-3l.39-.048a13.932 13.932 0 0 0 2.628-.586l-3.059-3.617h1.209v-2.679h11.68l.129.217a16.989 16.989 0 0 0 1.611 2.316l2.043-2.633h3.394L206.2 16.83a10.633 10.633 0 0 0 1.388.959l2.657-3.3Zm-14.576 11.236h4.256v-3.138h-4.256ZM197.16 19.7h8.148a14.921 14.921 0 0 1-3.962-4.011 16.59 16.59 0 0 1-4.186 4.011m.95-4.555h-5.028l2.14 2.469a10.984 10.984 0 0 0 2.888-2.469m19.072-2.7H238.7v7.026h-3.678v1.746h3.007v2.7h-3.007v1.846h3.678v2.677h-.281l-2.622 3.47a14.379 14.379 0 0 0 2.542.7l.361.067v2.683l-.519-.089a13.844 13.844 0 0 1-6.613-2.805v1.548l-.307.1c-3.143 1.013-8.379 1.164-11.22 1.164h-.444v-2.652h.444c.9 0 1.906 0 2.961-.034v-4.148h-3.3V28.2a14.451 14.451 0 0 1-3.5 6.925l-.775.871V31.15l.07-.11c1.425-2.218 1.7-4.727 1.7-8.582Zm14.786 7.026h-5.4v1.746h5.4Zm3.419 8.971h-3.882a7.472 7.472 0 0 0 2.1 2.33Zm-8.819-2.677h5.4v-1.844h-5.4Zm4.1 5.862a11.317 11.317 0 0 1-2.121-3.185h-2.571v3.972a23.988 23.988 0 0 0 4.692-.787m-10.461-14.781H235.7V15.1h-15.493Zm-.148 8.921h3.484v-1.846h-2.662v-2.7h2.662v-1.748h-3.336v2.935a34.93 34.93 0 0 1-.148 3.359M264 35.253h-3.391l-.763-1.666c-3.417 1.295-7.386 1.392-13.39 1.392h-5.985v-3h.443c.407 0 .8.007 1.188.013.275 0 .546.009.817.011l1.746-3.733h-4.194v-2.851h23.278v2.851h-2.989Zm-6.628-6.983H248.2L246.437 32c5.766-.005 9.132-.086 12.18-1.039Zm-16.386-7.238-.515.085v-3.062l.372-.061c4.411-.718 7.671-2.714 9.428-5.772L250.4 12h3.448l.128.227c1.746 3.12 5.081 5.168 9.39 5.766l.383.053v3.061l-.507-.074q-.82-.119-1.605-.293v2.112h-19V20.7q-.8.191-1.647.329m18.061-1.055a15.111 15.111 0 0 1-6.951-5.03 15.179 15.179 0 0 1-7.038 5.03Z" fill="#fff"/></svg>